<?xml version="1.0" encoding="UTF-8"?>
<svg width="182px" height="26px" viewBox="0 0 182 26" version="1.1" xmlns="http://www.w3.org/2000/svg" xmlns:xlink="http://www.w3.org/1999/xlink">
    <!-- Generator: Sketch 43.2 (39069) - http://www.bohemiancoding.com/sketch -->
    <title>LOGO</title>
    <desc>Created with Sketch.</desc>
    <defs></defs>
    <g id="Page-1" stroke="none" stroke-width="1" fill="none" fill-rule="evenodd">
        <g id="HOMEPAGE" transform="translate(-123.000000, -37.000000)" fill="#108DFF">
            <g id="LOGO" transform="translate(123.000000, 31.500000)">
                <text id="Timedlinks" font-family="ProximaNova-Bold, Proxima Nova" font-size="30" font-weight="bold">
                    <tspan x="35" y="28">Timedlinks</tspan>
                </text>
                <g id="clock-circular-outline" transform="translate(0.000000, 5.500000)" fill-rule="nonzero">
                    <g id="Capa_1">
                        <g id="Group">
                            <path d="M12.8885714,0 C5.78181633,0 0,5.78181633 0,12.8885714 C0,19.9953265 5.78181633,25.7771429 12.8885714,25.7771429 C19.9953265,25.7771429 25.7771429,19.9953265 25.7771429,12.8885714 C25.7771429,5.78181633 19.9953265,0 12.8885714,0 Z M12.8885714,23.0346735 C7.29406122,23.0346735 2.74220408,18.4833469 2.74220408,12.8885714 C2.74220408,7.29379592 7.29406122,2.74246939 12.8885714,2.74246939 C18.4830816,2.74246939 23.0349388,7.29379592 23.0349388,12.8885714 C23.0349388,18.4833469 18.4830816,23.0346735 12.8885714,23.0346735 Z" id="Shape"></path>
                            <path d="M19.6055918,12.4906122 L13.8134286,12.4906122 L13.8134286,5.52632653 C13.8134286,4.94026531 13.3382653,4.46510204 12.7522041,4.46510204 C12.1661429,4.46510204 11.6909796,4.94026531 11.6909796,5.52632653 L11.6909796,13.5518367 C11.6909796,14.137898 12.1661429,14.6130612 12.7522041,14.6130612 L19.6055918,14.6130612 C20.1916531,14.6130612 20.6668163,14.137898 20.6668163,13.5518367 C20.6668163,12.9657755 20.1916531,12.4906122 19.6055918,12.4906122 Z" id="Shape"></path>
                        </g>
                    </g>
                </g>
            </g>
        </g>
    </g>
</svg>